<svg width="21" height="16" viewBox="0 0 21 16" fill="none" xmlns="http://www.w3.org/2000/svg">
<path d="M10.4037 10.4506C11.119 10.4506 11.8051 10.2057 12.311 9.76971C12.8169 9.33371 13.1011 8.74238 13.1011 8.12579C13.1011 8.05771 13.0974 7.99024 13.0907 7.92361L10.1691 10.4417C10.2464 10.4475 10.3244 10.4506 10.4037 10.4506ZM19.3321 0.934533L18.3032 0.0485994C18.2671 0.0174806 18.2181 0 18.167 0C18.1159 0 18.0669 0.0174806 18.0308 0.0485994L15.3979 2.31844C13.9455 1.67869 12.3129 1.35882 10.5 1.35882C5.87105 1.35882 2.41741 3.43665 0.139073 7.59232C0.0474951 7.75945 0 7.94199 0 8.12683C0 8.31166 0.0474951 8.4942 0.139073 8.66134C1.04945 10.3141 2.14567 11.6387 3.42774 12.6354L0.879895 14.8305C0.84379 14.8616 0.823508 14.9039 0.823508 14.9479C0.823508 14.9919 0.84379 15.0341 0.879895 15.0653L1.90804 15.9514C1.94417 15.9825 1.99316 16 2.04423 16C2.09531 16 2.1443 15.9825 2.18043 15.9514L19.3321 1.16951C19.35 1.15409 19.3642 1.13577 19.3739 1.11561C19.3836 1.09545 19.3886 1.07384 19.3886 1.05202C19.3886 1.0302 19.3836 1.00859 19.3739 0.98843C19.3642 0.96827 19.35 0.949956 19.3321 0.934533ZM6.16488 8.12579C6.16481 7.49477 6.35438 6.8745 6.71512 6.32539C7.07585 5.77629 7.59546 5.31708 8.22332 4.99249C8.85117 4.66791 9.56586 4.48903 10.2978 4.47326C11.0297 4.4575 11.7539 4.6054 12.3997 4.90255L11.2288 5.91179C10.7565 5.78146 10.2518 5.76577 9.76986 5.86642C9.28795 5.96708 8.84752 6.1802 8.4969 6.48239C8.14628 6.78459 7.89901 7.16419 7.78222 7.57953C7.66544 7.99488 7.68365 8.42993 7.83486 8.83695L6.6639 9.84618C6.3353 9.31703 6.16385 8.72597 6.16488 8.12579Z" fill="white"/>
<path d="M20.8609 7.59025C20.0131 6.05142 19.0041 4.79662 17.8338 3.82586L14.3623 6.81806C14.655 7.47735 14.7198 8.19557 14.5491 8.88595C14.3783 9.57632 13.9793 10.2093 13.4002 10.7085C12.8211 11.2076 12.0866 11.5515 11.2856 11.6987C10.4846 11.8458 9.6513 11.7899 8.88636 11.5377L5.94186 14.0755C7.3079 14.6204 8.82728 14.8928 10.5 14.8928C15.1289 14.8928 18.5826 12.8149 20.8609 8.65926C20.9525 8.49213 21 8.30959 21 8.12475C21 7.93992 20.9525 7.75738 20.8609 7.59025Z" fill="white"/>
</svg>
