<svg width="32" height="30" viewBox="0 0 32 30" fill="none" xmlns="http://www.w3.org/2000/svg">
<path d="M30.2503 4H26.2503V7C26.2503 7.28891 26.1934 7.57499 26.0828 7.8419C25.9722 8.10882 25.8102 8.35135 25.6059 8.55564C25.4016 8.75992 25.1591 8.92197 24.8922 9.03253C24.6252 9.14309 24.3392 9.2 24.0503 9.2C23.7613 9.2 23.4753 9.14309 23.2084 9.03253C22.9414 8.92197 22.6989 8.75992 22.4946 8.55564C22.2903 8.35135 22.1283 8.10882 22.0177 7.8419C21.9072 7.57499 21.8503 7.28891 21.8503 7V4H10.2003V7C10.2003 7.58348 9.96847 8.14305 9.55589 8.55563C9.14331 8.96821 8.58373 9.2 8.00026 9.2C7.41678 9.2 6.8572 8.96821 6.44462 8.55563C6.03204 8.14305 5.80026 7.58348 5.80026 7V4H1.80026C1.56228 3.99729 1.32618 4.04233 1.10591 4.13246C0.885645 4.22259 0.685689 4.35597 0.51787 4.52473C0.350052 4.69348 0.217777 4.89417 0.128871 5.11493C0.0399639 5.33569 -0.00376946 5.57204 0.000257051 5.81V28.19C-0.00371596 28.4238 0.0384012 28.656 0.124203 28.8735C0.210004 29.091 0.33781 29.2894 0.500319 29.4575C0.662828 29.6256 0.856857 29.76 1.07132 29.8531C1.28579 29.9462 1.51649 29.9961 1.75026 30H30.2503C30.484 29.9961 30.7147 29.9462 30.9292 29.8531C31.1437 29.76 31.3377 29.6256 31.5002 29.4575C31.6627 29.2894 31.7905 29.091 31.8763 28.8735C31.9621 28.656 32.0042 28.4238 32.0003 28.19V5.81C32.0042 5.57624 31.9621 5.34398 31.8763 5.1265C31.7905 4.90902 31.6627 4.71057 31.5002 4.54249C31.3377 4.37441 31.1437 4.23999 30.9292 4.14691C30.7147 4.05383 30.484 4.00391 30.2503 4ZM8.00026 24H6.00026V22H8.00026V24ZM8.00026 19H6.00026V17H8.00026V19ZM8.00026 14H6.00026V12H8.00026V14ZM14.0003 24H12.0003V22H14.0003V24ZM14.0003 19H12.0003V17H14.0003V19ZM14.0003 14H12.0003V12H14.0003V14ZM20.0003 24H18.0003V22H20.0003V24ZM20.0003 19H18.0003V17H20.0003V19ZM20.0003 14H18.0003V12H20.0003V14ZM26.0003 24H24.0003V22H26.0003V24ZM26.0003 19H24.0003V17H26.0003V19ZM26.0003 14H24.0003V12H26.0003V14Z" fill="#14213D"/>
<path d="M8.00026 8C8.26547 8 8.51983 7.89464 8.70736 7.70711C8.8949 7.51957 9.00026 7.26522 9.00026 7V1C9.00026 0.734784 8.8949 0.48043 8.70736 0.292893C8.51983 0.105357 8.26547 0 8.00026 0C7.73504 0 7.48069 0.105357 7.29315 0.292893C7.10561 0.48043 7.00026 0.734784 7.00026 1V7C7.00026 7.26522 7.10561 7.51957 7.29315 7.70711C7.48069 7.89464 7.73504 8 8.00026 8Z" fill="#14213D"/>
<path d="M24.0003 8C24.2655 8 24.5198 7.89464 24.7074 7.70711C24.8949 7.51957 25.0003 7.26522 25.0003 7V1C25.0003 0.734784 24.8949 0.48043 24.7074 0.292893C24.5198 0.105357 24.2655 0 24.0003 0C23.735 0 23.4807 0.105357 23.2931 0.292893C23.1056 0.48043 23.0003 0.734784 23.0003 1V7C23.0003 7.26522 23.1056 7.51957 23.2931 7.70711C23.4807 7.89464 23.735 8 24.0003 8Z" fill="#14213D"/>
</svg>
