<svg width="138" height="138" viewBox="0 0 138 138" fill="none" xmlns="http://www.w3.org/2000/svg">
<path d="M101.478 2.02171C100.839 1.37971 100.078 0.870577 99.2411 0.523609C98.4038 0.176641 97.5063 -0.0013072 96.6 7.22895e-06H41.4C40.4937 -0.0013072 39.5961 0.176641 38.7589 0.523609C37.9217 0.870577 37.1614 1.37971 36.5217 2.02171L2.02171 36.5217C1.37971 37.1614 0.870577 37.9217 0.523609 38.7589C0.176641 39.5961 -0.0013072 40.4937 7.22895e-06 41.4V96.6C7.22895e-06 98.4354 0.724507 100.188 2.02171 101.478L36.5217 135.978C37.1614 136.62 37.9217 137.129 38.7589 137.476C39.5961 137.823 40.4937 138.001 41.4 138H96.6C98.4354 138 100.188 137.275 101.478 135.978L135.978 101.478C136.62 100.839 137.129 100.078 137.476 99.2411C137.823 98.4038 138.001 97.5063 138 96.6V41.4C138.001 40.4937 137.823 39.5961 137.476 38.7589C137.129 37.9217 136.62 37.1614 135.978 36.5217L101.478 2.02171ZM75.9 103.5H62.1V89.7H75.9V103.5ZM75.9 75.9H62.1V34.5H75.9V75.9Z" fill="#FF6161"/>
</svg>
