<svg width="49" height="18" viewBox="0 0 49 18" fill="none" xmlns="http://www.w3.org/2000/svg">
<path d="M21.473 3.03252C21.473 3.03252 15.7249 0.00632268 10.5123 0.00632268C5.29971 0.00632268 0.180623 1.256 0.180623 1.256L0 3.74902L1.12624 4.86593C1.84236 5.57191 2.15686 12.7475 5.02984 15.5988C7.90494 18.4522 15.2723 18.5407 17.7011 17.0234C20.1236 15.5061 22.4611 9.71712 22.4611 7.13137V5.70889C23.0454 5.12936 25.8951 5.07035 26.5368 5.70889V7.13347C26.5368 9.71922 28.8743 15.5103 31.2968 17.0234C33.7299 18.5407 41.0972 18.4501 43.9702 15.5967C46.8495 12.7454 47.1576 5.57191 47.8801 4.86172L49 3.74481L48.8194 1.24968C48.8194 1.24968 43.7024 0 38.4877 0C33.2751 0 27.527 3.03041 27.527 3.03041C26.2393 2.52885 22.8776 2.58786 21.4708 3.03041L21.473 3.03252Z" fill="#FCA311"/>
</svg>
