<svg width="29" height="28" viewBox="0 0 29 28" fill="none" xmlns="http://www.w3.org/2000/svg">
<path d="M11 28L27 28C27.5304 28 28.0391 27.7893 28.4142 27.4142C28.7893 27.0391 29 26.5304 29 26L29 2C29 1.46957 28.7893 0.96086 28.4142 0.585787C28.0391 0.210714 27.5304 0 27 0L11 0C10.4696 0 9.96086 0.210714 9.58579 0.585787C9.21071 0.96086 9 1.46957 9 2V8L18.37 8C18.6352 8 18.8896 8.10536 19.0771 8.29289C19.2646 8.48043 19.37 8.73478 19.37 9C19.37 9.26522 19.2646 9.51957 19.0771 9.70711C18.8896 9.89464 18.6352 10 18.37 10L9 10L9 26C9 26.5304 9.21071 27.0391 9.58579 27.4142C9.96086 27.7893 10.4696 28 11 28Z" fill="#FCA311"/>
<path d="M5.84 14.72C6.0313 14.8838 6.27738 14.9694 6.52905 14.9597C6.78073 14.95 7.01947 14.8457 7.19756 14.6676C7.37566 14.4895 7.47999 14.2507 7.48971 13.9991C7.49943 13.7474 7.41383 13.5013 7.25 13.31L3.87 10H9V8H3.87L7.25 4.54C7.35468 4.45035 7.4397 4.34004 7.49973 4.21597C7.55975 4.09191 7.59348 3.95677 7.5988 3.81905C7.60412 3.68133 7.58091 3.544 7.53064 3.41568C7.48036 3.28735 7.4041 3.1708 7.30665 3.07335C7.2092 2.97589 7.09265 2.89964 6.96432 2.84936C6.836 2.79909 6.69867 2.77588 6.56095 2.7812C6.42323 2.78652 6.28809 2.82025 6.16403 2.88027C6.03997 2.9403 5.92965 3.02532 5.84 3.13L0 8.93L5.84 14.72Z" fill="#FCA311"/>
</svg>
