<svg width="96" height="64" viewBox="0 0 96 64" fill="none" xmlns="http://www.w3.org/2000/svg">
<path d="M15.4297 60.9355C12.5488 60.1217 10.376 58.779 8.91113 56.9072C7.46257 55.0518 6.73828 52.5941 6.73828 49.5342V44.6758C6.73828 40.7207 5.01302 38.7432 1.5625 38.7432V35.2031C5.01302 35.2031 6.73828 33.2337 6.73828 29.2949V24.2168C6.77083 21.2383 7.49512 18.8376 8.91113 17.0146C10.3434 15.1755 12.5163 13.8408 15.4297 13.0107L16.3574 15.8184C12.9557 16.9089 11.2549 19.749 11.2549 24.3389V29.2705C11.2549 32.9652 9.89583 35.5368 7.17773 36.9854C9.89583 38.4502 11.2549 41.0462 11.2549 44.7734V49.8027C11.3037 54.2786 13.0046 57.0537 16.3574 58.1279L15.4297 60.9355ZM79.4189 58.1279C82.723 57.07 84.432 54.3763 84.5459 50.0469V44.6758C84.5459 40.916 86.0189 38.3525 88.9648 36.9854C86.0189 35.6507 84.5459 33.0872 84.5459 29.2949V24.3389C84.5459 19.749 82.8451 16.9089 79.4434 15.8184L80.3711 13.0107C83.252 13.8245 85.4167 15.151 86.8652 16.9902C88.3138 18.8132 89.0462 21.2301 89.0625 24.2412V29.3682C89.0625 33.2581 90.7878 35.2031 94.2383 35.2031V38.7432C90.7878 38.7432 89.0625 40.7207 89.0625 44.6758V49.6074C89.0625 52.6673 88.3219 55.1169 86.8408 56.9561C85.376 58.7952 83.2194 60.1217 80.3711 60.9355L79.4189 58.1279Z" fill="white"/>
<path d="M44.473 45.0325C44.473 45.0325 38.7249 42.0063 33.5123 42.0063C28.2997 42.0063 23.1806 43.256 23.1806 43.256L23 45.749L24.1262 46.8659C24.8424 47.5719 25.1569 54.7475 28.0298 57.5988C30.9049 60.4522 38.2723 60.5407 40.7011 59.0234C43.1236 57.5061 45.4611 51.7171 45.4611 49.1314V47.7089C46.0454 47.1294 48.8951 47.0704 49.5368 47.7089V49.1335C49.5368 51.7192 51.8743 57.5103 54.2968 59.0234C56.7299 60.5407 64.0972 60.4501 66.9702 57.5967C69.8495 54.7454 70.1576 47.5719 70.8801 46.8617L72 45.7448L71.8194 43.2497C71.8194 43.2497 66.7024 42 61.4877 42C56.2751 42 50.527 45.0304 50.527 45.0304C49.2393 44.5289 45.8776 44.5879 44.4708 45.0304L44.473 45.0325Z" fill="white"/>
<path d="M69.1855 23.9052C69.2465 23.26 69.277 22.6147 69.277 21.9695C69.277 11.4303 64.9155 0 60.554 0C56.1925 0 51.831 4.39389 47.5 4.39389C43.1385 4.39389 38.777 0 34.4155 0C30.054 0 25.723 11.2152 25.723 21.9695C25.723 22.6147 25.723 23.26 25.784 23.9052C32.921 25.5337 40.18 26.3633 47.5 26.3326C54.9725 26.3326 62.2315 25.503 69.1855 23.9052ZM21.4225 43.14C38.4218 48.2867 56.5477 48.2867 73.547 43.14C74.8343 42.7045 75.9549 41.8757 76.753 40.7688C77.5511 39.6619 77.987 38.332 78 36.964C78 35.5813 77.573 34.2601 76.8105 33.1232C76.0175 32.017 74.95 31.1874 73.608 30.7265C65.373 33.369 56.65 34.7517 47.5 34.7517C38.35 34.7517 29.5965 33.369 21.3615 30.7265C20.05 31.1874 18.9825 32.0478 18.1895 33.1539C17.427 34.2601 17 35.5813 17 36.964C17 39.8523 18.8605 42.2797 21.4225 43.14Z" fill="white"/>
</svg>
