<svg width="31" height="31" viewBox="0 0 31 31" fill="none" xmlns="http://www.w3.org/2000/svg">
<path d="M11.3851 22.7678C14.2525 22.7678 16.8662 21.6945 18.8716 19.9397L21.0462 24.4933C21.0462 24.4933 21.4934 24.8576 22.1082 25.4625C22.7377 26.0529 23.5655 26.8514 24.3592 27.6857L26.5679 29.9494L27.5503 31L31 27.5507L29.9493 26.5684L27.6853 24.3599C26.9236 23.6303 26.1822 22.8798 25.462 22.1092C24.8569 21.4944 24.4926 21.0472 24.4926 21.0472L19.9386 18.8729C21.7625 16.8043 22.7693 14.1416 22.7702 11.3839C22.7702 5.10812 17.6615 0 11.3851 0C5.10866 0 0 5.10812 0 11.3839C0 17.6597 5.10866 22.7678 11.3851 22.7678Z" fill="#14213D"/>
</svg>
