<svg width="29" height="29" viewBox="0 0 29 29" fill="none" xmlns="http://www.w3.org/2000/svg">
<path d="M3.625 0C2.66359 0 1.74156 0.381919 1.06174 1.06174C0.381919 1.74156 0 2.66359 0 3.625V25.375C0 26.3364 0.381919 27.2584 1.06174 27.9383C1.74156 28.6181 2.66359 29 3.625 29H25.375C26.3364 29 27.2584 28.6181 27.9383 27.9383C28.6181 27.2584 29 26.3364 29 25.375V3.625C29 2.66359 28.6181 1.74156 27.9383 1.06174C27.2584 0.381919 26.3364 0 25.375 0H3.625ZM15.4062 8.15625V18.6561L19.2959 14.7646C19.3801 14.6804 19.4802 14.6135 19.5903 14.5679C19.7003 14.5223 19.8183 14.4989 19.9375 14.4989C20.0567 14.4989 20.1747 14.5223 20.2847 14.5679C20.3948 14.6135 20.4949 14.6804 20.5791 14.7646C20.6634 14.8489 20.7302 14.9489 20.7758 15.059C20.8214 15.1691 20.8449 15.2871 20.8449 15.4062C20.8449 15.5254 20.8214 15.6434 20.7758 15.7535C20.7302 15.8636 20.6634 15.9636 20.5791 16.0479L15.1416 21.4854C15.0574 21.5698 14.9574 21.6367 14.8473 21.6824C14.7372 21.7281 14.6192 21.7516 14.5 21.7516C14.3808 21.7516 14.2628 21.7281 14.1527 21.6824C14.0426 21.6367 13.9426 21.5698 13.8584 21.4854L8.42087 16.0479C8.33662 15.9636 8.26978 15.8636 8.22418 15.7535C8.17858 15.6434 8.1551 15.5254 8.1551 15.4062C8.1551 15.2871 8.17858 15.1691 8.22418 15.059C8.26978 14.9489 8.33662 14.8489 8.42087 14.7646C8.59104 14.5945 8.82184 14.4989 9.0625 14.4989C9.18166 14.4989 9.29965 14.5223 9.40975 14.5679C9.51984 14.6135 9.61987 14.6804 9.70413 14.7646L13.5938 18.6561V8.15625C13.5938 7.9159 13.6892 7.68539 13.8592 7.51543C14.0291 7.34548 14.2596 7.25 14.5 7.25C14.7404 7.25 14.9709 7.34548 15.1408 7.51543C15.3108 7.68539 15.4062 7.9159 15.4062 8.15625Z" fill="#14213D"/>
</svg>
