<svg width="24" height="24" viewBox="0 0 24 24" fill="none" xmlns="http://www.w3.org/2000/svg">
<path d="M12.7697 12.0226L3.66851 13.5403C3.56388 13.5578 3.46568 13.6025 3.38381 13.6699C3.30193 13.7374 3.23926 13.8252 3.20209 13.9246L0.0640532 22.3309C-0.235613 23.1043 0.572762 23.8413 1.31468 23.4704L23.0647 12.5954C23.2153 12.5202 23.342 12.4045 23.4306 12.2612C23.5192 12.118 23.5661 11.953 23.5661 11.7846C23.5661 11.6162 23.5192 11.4512 23.4306 11.3079C23.342 11.1647 23.2153 11.049 23.0647 10.9738L1.31468 0.0988046C0.572762 -0.272154 -0.235613 0.466138 0.0640532 1.23826L3.2033 9.64464C3.2403 9.74422 3.30289 9.83229 3.38478 9.89997C3.46667 9.96764 3.56495 10.0125 3.66972 10.0301L12.7709 11.5466C12.8269 11.5564 12.8777 11.5856 12.9142 11.6292C12.9508 11.6727 12.9709 11.7277 12.9709 11.7846C12.9709 11.8415 12.9508 11.8965 12.9142 11.94C12.8777 11.9836 12.8269 12.0128 12.7709 12.0226H12.7697Z" fill="#14213D"/>
</svg>
