<svg width="21" height="16" viewBox="0 0 21 16" fill="none" xmlns="http://www.w3.org/2000/svg">
<path d="M7.70625 8C7.70625 8.72894 7.99044 9.42802 8.49631 9.94346C9.00217 10.4589 9.68826 10.7485 10.4037 10.7485C11.1191 10.7485 11.8051 10.4589 12.311 9.94346C12.8169 9.42802 13.1011 8.72894 13.1011 8C13.1011 7.27106 12.8169 6.57198 12.311 6.05654C11.8051 5.5411 11.1191 5.25153 10.4037 5.25153C9.68826 5.25153 9.00217 5.5411 8.49631 6.05654C7.99044 6.57198 7.70625 7.27106 7.70625 8ZM20.8609 7.36687C18.5778 2.46626 15.1265 0 10.5 0C5.87106 0 2.42223 2.46626 0.139074 7.36932C0.0474951 7.56691 0 7.78271 0 8.00123C0 8.21974 0.0474951 8.43554 0.139074 8.63313C2.42223 13.5337 5.87346 16 10.5 16C15.1289 16 18.5778 13.5337 20.8609 8.63067C21.0464 8.23313 21.0464 7.77178 20.8609 7.36687ZM10.4037 12.319C8.0627 12.319 6.16488 10.3853 6.16488 8C6.16488 5.61472 8.0627 3.68098 10.4037 3.68098C12.7446 3.68098 14.6424 5.61472 14.6424 8C14.6424 10.3853 12.7446 12.319 10.4037 12.319Z" fill="white"/>
</svg>
