<svg width="138" height="138" viewBox="0 0 138 138" fill="none" xmlns="http://www.w3.org/2000/svg">
<path d="M69 0C87.2999 0 104.85 7.26962 117.79 20.2096C130.73 33.1496 138 50.7001 138 69C138 87.2999 130.73 104.85 117.79 117.79C104.85 130.73 87.2999 138 69 138C50.7001 138 33.1496 130.73 20.2096 117.79C7.26962 104.85 0 87.2999 0 69C0 50.7001 7.26962 33.1496 20.2096 20.2096C33.1496 7.26962 50.7001 0 69 0ZM60.4046 82.6127L45.0767 67.275C44.5272 66.7255 43.8749 66.2896 43.1569 65.9922C42.439 65.6948 41.6695 65.5418 40.8924 65.5418C40.1152 65.5418 39.3458 65.6948 38.6278 65.9922C37.9098 66.2896 37.2575 66.7255 36.708 67.275C35.5982 68.3848 34.9748 69.8899 34.9748 71.4594C34.9748 73.0288 35.5982 74.5339 36.708 75.6437L56.2251 95.1609C56.7731 95.7131 57.4249 96.1514 58.1431 96.4505C58.8613 96.7497 59.6315 96.9037 60.4095 96.9037C61.1875 96.9037 61.9577 96.7497 62.6759 96.4505C63.3941 96.1514 64.0459 95.7131 64.5939 95.1609L105.008 54.7367C105.565 54.1895 106.008 53.5374 106.312 52.8182C106.615 52.0989 106.773 51.3266 106.777 50.5459C106.781 49.7652 106.63 48.9915 106.333 48.2694C106.036 47.5474 105.599 46.8912 105.047 46.3388C104.495 45.7865 103.84 45.3488 103.118 45.0511C102.396 44.7533 101.623 44.6014 100.842 44.6042C100.061 44.6069 99.289 44.7641 98.5694 45.0669C97.8497 45.3696 97.1972 45.8118 96.6493 46.368L60.4046 82.6127Z" fill="#2CAB00"/>
</svg>
