<svg width="59" height="59" viewBox="0 0 59 59" fill="none" xmlns="http://www.w3.org/2000/svg">
<path d="M29.5 0C13.5081 0 0 13.5081 0 29.5C0 45.492 13.5081 59 29.5 59C45.492 59 59 45.492 59 29.5C59 13.5081 45.492 0 29.5 0ZM29.5 14.75C34.5947 14.75 38.35 18.5024 38.35 23.6C38.35 28.6976 34.5947 32.45 29.5 32.45C24.4083 32.45 20.65 28.6976 20.65 23.6C20.65 18.5024 24.4083 14.75 29.5 14.75ZM14.4373 43.5774C17.0835 39.6834 21.4967 37.0874 26.55 37.0874H32.45C37.5063 37.0874 41.9166 39.6834 44.5627 43.5774C40.7926 47.613 35.4443 50.15 29.5 50.15C23.5558 50.15 18.2074 47.613 14.4373 43.5774Z" fill="#14213D"/>
</svg>
